<svg xmlns="http://www.w3.org/2000/svg" viewBox="0 0 64 64">
  <defs>
    <linearGradient id="grad" x1="0%" y1="0%" x2="100%" y2="100%">
      <stop offset="0%" style="stop-color:#a855f7"/>
      <stop offset="100%" style="stop-color:#6366f1"/>
    </linearGradient>
  </defs>
  
  <!-- Octopus head -->
  <ellipse cx="32" cy="24" rx="18" ry="14" fill="url(#grad)"/>
  
  <!-- Eyes -->
  <circle cx="26" cy="22" r="3" fill="#1e1e2e"/>
  <circle cx="38" cy="22" r="3" fill="#1e1e2e"/>
  <circle cx="27" cy="21" r="1.5" fill="#fff"/>
  <circle cx="39" cy="21" r="1.5" fill="#fff"/>
  
  <!-- Tentacles -->
  <path d="M14 32 Q8 42, 12 54" stroke="url(#grad)" stroke-width="4" fill="none" stroke-linecap="round"/>
  <path d="M22 35 Q18 48, 22 56" stroke="url(#grad)" stroke-width="3" fill="none" stroke-linecap="round"/>
  <path d="M32 36 Q32 50, 32 58" stroke="url(#grad)" stroke-width="3" fill="none" stroke-linecap="round"/>
  <path d="M42 35 Q46 48, 42 56" stroke="url(#grad)" stroke-width="3" fill="none" stroke-linecap="round"/>
  <path d="M50 32 Q56 42, 52 54" stroke="url(#grad)" stroke-width="4" fill="none" stroke-linecap="round"/>
  
  <!-- Data nodes -->
  <circle cx="12" cy="54" r="3" fill="#22d3ee"/>
  <circle cx="22" cy="56" r="2.5" fill="#22d3ee"/>
  <circle cx="32" cy="58" r="2.5" fill="#22d3ee"/>
  <circle cx="42" cy="56" r="2.5" fill="#22d3ee"/>
  <circle cx="52" cy="54" r="3" fill="#22d3ee"/>
</svg>

