<svg xmlns="http://www.w3.org/2000/svg" viewBox="0 0 48 48" width="48" height="48">
  <defs>
    <linearGradient id="brainGradient48" x1="0%" y1="0%" x2="100%" y2="100%">
      <stop offset="0%" style="stop-color:#7C3AED;stop-opacity:1" />
      <stop offset="100%" style="stop-color:#A855F7;stop-opacity:1" />
    </linearGradient>
  </defs>
  
  <!-- Central brain -->
  <circle cx="24" cy="20" r="8" fill="none" stroke="url(#brainGradient48)" stroke-width="1.5"/>
  <circle cx="24" cy="20" r="2" fill="#A855F7"/>
  
  <!-- 8 Tentacles -->
  <path d="M 24 12 L 24 4" stroke="url(#brainGradient48)" stroke-width="1.5" stroke-linecap="round"/>
  <circle cx="24" cy="4" r="1.5" fill="#A855F7"/>
  
  <path d="M 30 14 L 36 8" stroke="url(#brainGradient48)" stroke-width="1.5" stroke-linecap="round"/>
  <circle cx="36" cy="8" r="1.5" fill="#A855F7"/>
  
  <path d="M 32 20 L 42 20" stroke="url(#brainGradient48)" stroke-width="1.5" stroke-linecap="round"/>
  <circle cx="42" cy="20" r="1.5" fill="#A855F7"/>
  
  <path d="M 30 26 L 36 32" stroke="url(#brainGradient48)" stroke-width="1.5" stroke-linecap="round"/>
  <circle cx="36" cy="32" r="1.5" fill="#A855F7"/>
  
  <path d="M 24 28 L 24 40" stroke="url(#brainGradient48)" stroke-width="1.5" stroke-linecap="round"/>
  <circle cx="24" cy="40" r="1.5" fill="#A855F7"/>
  
  <path d="M 18 26 L 12 32" stroke="url(#brainGradient48)" stroke-width="1.5" stroke-linecap="round"/>
  <circle cx="12" cy="32" r="1.5" fill="#A855F7"/>
  
  <path d="M 16 20 L 6 20" stroke="url(#brainGradient48)" stroke-width="1.5" stroke-linecap="round"/>
  <circle cx="6" cy="20" r="1.5" fill="#A855F7"/>
  
  <path d="M 18 14 L 12 8" stroke="url(#brainGradient48)" stroke-width="1.5" stroke-linecap="round"/>
  <circle cx="12" cy="8" r="1.5" fill="#A855F7"/>
</svg>
